# xmcd CD database file
#
# Track frame offsets:
#	150
#	34567
#	53809
#	95655
#	111740
#	134770
#	162432
#	181346
#	199196
#	237119
#	254481
#	297930
#
# Disc length: 4213 seconds
#
# Revision: 0
# Processed by: cddbd v1.5.1PL0 Copyright (c) Steve Scherf et al.
# Submitted via: CDex 1.51
#
DISCID=b710730c
DTITLE=Clifford Brown - Max Roach - At Basin Street
DYEAR=1900
DGENRE=Jazz
TTITLE0=What is This Thing Called Love?
TTITLE1=Love Is a Many Splendored Thing
TTITLE2=I'll Remember April
TTITLE3=Step Lightly (Junior's Arrival)
TTITLE4=Powell's Prances
TTITLE5=Time
TTITLE6=The Scene is Clean
TTITLE7=Gertrude's Bounce
TTITLE8=Flossie Lou
TTITLE9=What is This Thing Called Love? (Alt. Take)
TTITLE10=Love is a Many Splendored Thing (Alt. Take)
TTITLE11=I'll Remember April (Alt. Take)
EXTD=
EXTT0=
EXTT1=
EXTT2=
EXTT3=
EXTT4=
EXTT5=
EXTT6=
EXTT7=
EXTT8=
EXTT9=
EXTT10=
EXTT11=
PLAYORDER=
